<svg width="42" height="40" fill="none" xmlns="http://www.w3.org/2000/svg"><path d="M6.257 38.356a5.257 5.257 0 100-10.514 5.257 5.257 0 000 10.514zm29.723.475a5.02 5.02 0 100-10.04 5.02 5.02 0 000 10.04zM34.004 9.108a3.596 3.596 0 100-7.193 3.596 3.596 0 000 7.193zM6.93 8.238a3.478 3.478 0 100-6.955 3.478 3.478 0 000 6.955z" stroke="#1A2578" stroke-width="1.5" stroke-linecap="round" stroke-linejoin="round"/><path d="M20.921 28.397c5.457 0 9.882-4.424 9.882-9.882 0-5.457-4.425-9.882-9.882-9.882s-9.882 4.425-9.882 9.882c0 5.458 4.425 9.882 9.882 9.882z" stroke="#BF0830" stroke-width="1.5" stroke-linecap="round" stroke-linejoin="round"/><path d="M20.684 24.681a5.771 5.771 0 100-11.542 5.771 5.771 0 000 11.543z" stroke="#BF0830" stroke-width="1.5" stroke-linecap="round" stroke-linejoin="round"/><path d="M9.102 7.475l7.541 7.317m14.741-6.818l-6.417 7.07m7.309 15.378l-7.31-7.645M10.21 29.636l6.433-6.607" stroke="#1A2578" stroke-width="1.5" stroke-linecap="round" stroke-linejoin="round"/></svg>