<svg width="190" height="24" fill="none" xmlns="http://www.w3.org/2000/svg"><path d="M17.702 12.196h-1.71V8.452h1.71c.684 0 1.242.162 1.638.468.396.324.612.792.612 1.404 0 .63-.216 1.098-.612 1.404-.396.324-.954.468-1.638.468zM13.832 6.4V19h2.16v-4.752h.99L19.97 19h2.52l-3.15-4.896c.9-.216 1.584-.666 2.07-1.35.486-.666.738-1.458.738-2.394 0-.576-.108-1.116-.306-1.602a3.788 3.788 0 00-.846-1.26 4.043 4.043 0 00-1.314-.81 5.241 5.241 0 00-1.71-.288h-4.14zm16.092 7.542h-4.23c0-.18.054-.378.144-.594.09-.198.216-.378.396-.558.18-.162.396-.306.648-.414.252-.108.54-.162.9-.162s.666.054.936.162c.252.108.468.252.648.432s.306.36.396.558c.09.216.144.396.162.576zm-2.142-3.69c-.612 0-1.188.126-1.71.36-.54.234-.99.558-1.368.954a4.326 4.326 0 00-.882 1.404 4.61 4.61 0 00-.324 1.728c0 .648.108 1.242.342 1.782a4.24 4.24 0 00.972 1.44c.414.414.9.738 1.458.954a4.67 4.67 0 001.818.342c.756 0 1.422-.126 2.016-.396a6.282 6.282 0 001.404-.828l-1.08-1.62a2.82 2.82 0 01-1.134.666c-.432.144-.81.198-1.17.198-.36 0-.666-.054-.936-.162a2.877 2.877 0 01-.738-.396 1.849 1.849 0 01-.504-.558 1.637 1.637 0 01-.252-.612h6.372c0-.162.018-.324.018-.468v-.342c0-.648-.126-1.26-.342-1.8a4.46 4.46 0 00-.936-1.404 4.16 4.16 0 00-1.368-.918 4.31 4.31 0 00-1.656-.324zm9.544 0c-.666 0-1.296.09-1.89.234a9.961 9.961 0 00-1.53.54l.702 1.782a8.884 8.884 0 011.422-.486c.432-.09.81-.144 1.098-.144.198 0 .414.036.63.072.216.054.432.144.612.252.18.108.324.27.45.45.108.198.18.432.18.702v.486a4.016 4.016 0 00-1.098-.45 4.98 4.98 0 00-1.224-.162c-.486 0-.936.072-1.35.216-.414.144-.774.324-1.08.576-.306.252-.54.558-.72.918-.18.36-.252.738-.252 1.17 0 .432.072.828.252 1.17.162.36.396.648.684.9.288.252.612.432.99.558.378.126.774.18 1.188.18.594 0 1.134-.108 1.62-.36.486-.252.864-.558 1.152-.936V19h1.998v-5.562c0-.972-.342-1.746-1.026-2.322-.684-.576-1.62-.864-2.808-.864zm-.342 7.164c-.162 0-.324 0-.504-.036s-.36-.09-.504-.162a.936.936 0 01-.36-.342c-.108-.144-.144-.324-.144-.558 0-.216.036-.414.144-.576.108-.144.234-.27.396-.36.162-.09.342-.162.54-.198.18-.036.378-.072.576-.072.27 0 .576.036.936.108.342.072.648.18.936.324v.882c-.198.252-.45.468-.774.684-.324.216-.738.306-1.242.306zm12.332-3.96v2.556c-.18.324-.45.594-.774.828-.342.252-.774.36-1.296.36-.72 0-1.278-.234-1.692-.702-.414-.468-.612-1.044-.612-1.764 0-.702.198-1.296.612-1.764.414-.468.972-.702 1.692-.702.522 0 .954.126 1.296.36.324.252.594.522.774.828zM51.476 19V5.392h-2.16v5.976c-.216-.27-.522-.522-.918-.756-.396-.234-.9-.36-1.512-.36-.54 0-1.062.126-1.566.342a4.011 4.011 0 00-1.332.918 4.453 4.453 0 00-.9 1.422c-.234.54-.342 1.152-.342 1.8 0 .648.108 1.26.342 1.8.216.558.522 1.026.9 1.422.378.396.81.72 1.314.936a3.959 3.959 0 001.584.324c.648 0 1.188-.126 1.62-.396.432-.27.756-.576.972-.936V19h1.998zm11.68-1.8c-.36 0-.702-.054-.99-.198a2.194 2.194 0 01-.738-.522c-.216-.216-.36-.486-.468-.792a2.722 2.722 0 01-.162-.954c0-.324.054-.648.162-.936.108-.288.252-.558.468-.792.198-.216.45-.396.738-.54a2.49 2.49 0 01.99-.198c.36 0 .684.072.972.198.288.144.54.324.756.54.198.234.36.504.468.792.108.288.162.612.162.936 0 .342-.054.666-.162.954a2.31 2.31 0 01-.468.792 2.469 2.469 0 01-.756.522c-.288.144-.612.198-.972.198zm0-6.948a4.76 4.76 0 00-1.782.342 4.76 4.76 0 00-1.458.954c-.414.414-.738.9-.972 1.44a4.379 4.379 0 00-.342 1.746c0 .63.108 1.224.342 1.764.234.54.558 1.026.972 1.422.414.396.9.72 1.458.954.54.234 1.134.342 1.782.342.63 0 1.224-.108 1.782-.342a4.898 4.898 0 001.44-.954c.414-.396.738-.882.972-1.422.234-.54.36-1.134.36-1.764 0-.612-.126-1.206-.36-1.746a4.621 4.621 0 00-.972-1.44c-.414-.396-.9-.72-1.44-.954a4.904 4.904 0 00-1.782-.342zm9.243 8.964c.324 0 .612-.036.882-.126s.522-.198.738-.342a2.85 2.85 0 00.558-.468c.144-.18.288-.342.396-.522V19h2.016v-8.532h-2.16v5.688c-.18.288-.414.522-.684.738-.288.216-.648.306-1.098.306-.504 0-.882-.126-1.17-.414-.288-.288-.432-.738-.432-1.386v-4.932h-2.16v5.526c0 .522.072.972.252 1.368.18.396.414.738.702 1.008.288.288.612.486.99.63.378.144.774.216 1.17.216zm11.157-8.964c-.576 0-1.062.162-1.458.45-.396.306-.702.648-.9 1.008v-1.242h-2.052V19h2.16v-5.58c.162-.27.396-.522.72-.774.306-.252.72-.378 1.224-.378.18 0 .36.018.54.054.18.036.324.09.45.144l.756-1.944a3.906 3.906 0 00-.756-.198c-.252-.036-.486-.072-.684-.072zm12.252 0c-.576 0-1.062.162-1.458.45-.396.306-.702.648-.9 1.008v-1.242h-2.052V19h2.16v-5.58c.162-.27.396-.522.72-.774.306-.252.72-.378 1.224-.378.18 0 .36.018.54.054.18.036.324.09.45.144l.756-1.944a3.906 3.906 0 00-.756-.198c-.252-.036-.486-.072-.684-.072zm8.401 3.69h-4.23c0-.18.054-.378.144-.594.09-.198.216-.378.396-.558.18-.162.396-.306.648-.414.252-.108.54-.162.9-.162s.666.054.936.162c.252.108.468.252.648.432s.306.36.396.558c.09.216.144.396.162.576zm-2.142-3.69c-.612 0-1.188.126-1.71.36-.54.234-.99.558-1.368.954a4.326 4.326 0 00-.882 1.404 4.61 4.61 0 00-.324 1.728c0 .648.108 1.242.342 1.782a4.24 4.24 0 00.972 1.44c.414.414.9.738 1.458.954a4.67 4.67 0 001.818.342c.756 0 1.422-.126 2.016-.396a6.282 6.282 0 001.404-.828l-1.08-1.62a2.82 2.82 0 01-1.134.666c-.432.144-.81.198-1.17.198-.36 0-.666-.054-.936-.162a2.877 2.877 0 01-.738-.396 1.849 1.849 0 01-.504-.558 1.632 1.632 0 01-.252-.612h6.372c0-.162.018-.324.018-.468v-.342c0-.648-.126-1.26-.342-1.8a4.46 4.46 0 00-.936-1.404 4.16 4.16 0 00-1.368-.918 4.31 4.31 0 00-1.656-.324zm7.24.216h-2.394l4.518 8.964 4.518-8.964h-2.322l-2.16 4.644-2.16-4.644zm7.755-2.754c0 .396.126.738.414 1.008.27.288.612.414 1.008.414s.72-.126 1.008-.414c.27-.27.414-.612.414-1.008s-.144-.72-.414-1.008c-.288-.27-.612-.414-1.008-.414s-.738.144-1.008.414a1.345 1.345 0 00-.414 1.008zm.342 2.754V19h2.16v-8.532h-2.16zm10.518 3.474h-4.23c0-.18.054-.378.144-.594.09-.198.216-.378.396-.558.18-.162.396-.306.648-.414.252-.108.54-.162.9-.162s.666.054.936.162c.252.108.468.252.648.432s.306.36.396.558c.09.216.144.396.162.576zm-2.142-3.69c-.612 0-1.188.126-1.71.36-.54.234-.99.558-1.368.954a4.326 4.326 0 00-.882 1.404 4.61 4.61 0 00-.324 1.728c0 .648.108 1.242.342 1.782a4.24 4.24 0 00.972 1.44c.414.414.9.738 1.458.954a4.67 4.67 0 001.818.342c.756 0 1.422-.126 2.016-.396a6.282 6.282 0 001.404-.828l-1.08-1.62a2.82 2.82 0 01-1.134.666c-.432.144-.81.198-1.17.198-.36 0-.666-.054-.936-.162a2.877 2.877 0 01-.738-.396 1.849 1.849 0 01-.504-.558 1.637 1.637 0 01-.252-.612h6.372c0-.162.018-.324.018-.468v-.342c0-.648-.126-1.26-.342-1.8a4.46 4.46 0 00-.936-1.404 4.16 4.16 0 00-1.368-.918 4.31 4.31 0 00-1.656-.324zm7.294.216h-2.412l4.122 8.964 2.7-6.084 2.736 6.084 4.122-8.964h-2.196l-1.836 4.374-1.8-4.374h-1.818l-1.854 4.374-1.764-4.374zm13.078 5.634l-1.206 1.566c.18.198.396.396.648.576.252.18.558.342.882.486.324.144.666.27 1.062.36a5.7 5.7 0 001.278.126c.486 0 .954-.054 1.404-.18a3.633 3.633 0 001.17-.522c.342-.234.612-.522.828-.882.198-.342.306-.738.306-1.206 0-.396-.09-.738-.252-1.026a2.426 2.426 0 00-.63-.72 4.132 4.132 0 00-.936-.468c-.36-.108-.72-.216-1.08-.306-.72-.144-1.242-.288-1.548-.396-.324-.108-.468-.288-.468-.54 0-.252.144-.468.468-.612a2.405 2.405 0 011.044-.216c.432 0 .846.09 1.224.234.36.162.684.324.936.504l1.08-1.584c-.324-.234-.774-.468-1.314-.702-.54-.216-1.188-.342-1.944-.342a4.88 4.88 0 00-1.53.234 3.41 3.41 0 00-1.134.612 2.556 2.556 0 00-.72.882 2.256 2.256 0 00-.234 1.026c0 .396.09.738.27 1.026.18.288.414.522.72.738.288.216.63.378 1.008.522.378.144.774.252 1.17.324.216.072.432.126.648.162.216.036.396.09.54.144.144.072.27.144.36.234a.46.46 0 01.144.342c0 .288-.162.504-.468.63-.306.144-.648.198-1.026.198-.324 0-.63-.036-.9-.108a3.026 3.026 0 01-.738-.306 3.412 3.412 0 01-.594-.396 5.455 5.455 0 01-.468-.414zM12.5 20.386h140.6v.684H12.5v-.684z" fill="#424B5A"/><path fill-rule="evenodd" clip-rule="evenodd" d="M168.088 5.921a.832.832 0 00-1.176 1.175l4.063 4.07h-9.308a.833.833 0 100 1.667h9.308l-4.063 4.07a.832.832 0 001.176 1.175L174.167 12l-6.079-6.079z" fill="#000" fill-opacity=".7"/><mask id="mask0_1_243566" style="mask-type:alpha" maskUnits="userSpaceOnUse" x="160" y="5" width="15" height="14"><path fill-rule="evenodd" clip-rule="evenodd" d="M168.088 5.921a.832.832 0 00-1.176 1.175l4.063 4.07h-9.308a.833.833 0 100 1.667h9.308l-4.063 4.07a.832.832 0 001.176 1.175L174.167 12l-6.079-6.079z" fill="#fff"/></mask><g mask="url(#mask0_1_243566)"><path fill="#424B5A" d="M157.5 2h20v20h-20z"/></g></svg>