<svg width="24" height="24" fill="none" xmlns="http://www.w3.org/2000/svg"><path fill-rule="evenodd" clip-rule="evenodd" d="M11.295 4.705a.997.997 0 011.41 1.41L7.83 11H19a1 1 0 110 2H7.83l4.876 4.885a.997.997 0 01-1.411 1.41L4 12l7.295-7.295z" fill="#C2D1D9"/><mask id="mask0_1_258199" style="mask-type:alpha" maskUnits="userSpaceOnUse" x="4" y="4" width="16" height="16"><path fill-rule="evenodd" clip-rule="evenodd" d="M11.295 4.705a.997.997 0 011.41 1.41L7.83 11H19a1 1 0 110 2H7.83l4.876 4.885a.997.997 0 01-1.411 1.41L4 12l7.295-7.295z" fill="#fff"/></mask><g mask="url(#mask0_1_258199)"><path fill="#424B5A" d="M0 0h24v24H0z"/></g></svg>